<?xml version="1.0" encoding="UTF-8"?>
<svg version="1.1" xmlns="http://www.w3.org/2000/svg" width="256" height="256">
<path d="M0 0 C1.01247803 0.27408691 1.01247803 0.27408691 2.04541016 0.55371094 C32.31829414 8.88268602 61.01342228 28.59651721 77 56 C77.40943848 56.69963867 77.81887695 57.39927734 78.24072266 58.12011719 C84.66997596 69.30121891 89.58876157 80.56227976 93 93 C93.50853516 94.76150391 93.50853516 94.76150391 94.02734375 96.55859375 C98.38980524 114.9130976 98.21629674 138.90223765 93 157 C92.81727539 157.67498535 92.63455078 158.3499707 92.44628906 159.04541016 C84.11731398 189.31829414 64.40348279 218.01342228 37 234 C36.30036133 234.40943848 35.60072266 234.81887695 34.87988281 235.24072266 C23.69878109 241.66997596 12.43772024 246.58876157 0 250 C-1.17433594 250.33902344 -2.34867188 250.67804688 -3.55859375 251.02734375 C-21.89068934 255.38447929 -45.92793669 255.23971201 -64 250 C-65.0523584 249.70198486 -65.0523584 249.70198486 -66.12597656 249.39794922 C-81.31800979 245.00994308 -95.39784722 238.63036852 -108 229 C-108.68578125 228.51660156 -109.3715625 228.03320312 -110.078125 227.53515625 C-133.68882991 210.3518099 -149.3462312 184.90641494 -157 157 C-157.33902344 155.82566406 -157.67804688 154.65132812 -158.02734375 153.44140625 C-162.38980524 135.0869024 -162.21629674 111.09776235 -157 93 C-156.72591309 91.98752197 -156.72591309 91.98752197 -156.44628906 90.95458984 C-148.11731398 60.68170586 -128.40348279 31.98657772 -101 16 C-99.95054199 15.38584229 -99.95054199 15.38584229 -98.87988281 14.75927734 C-87.69878109 8.33002404 -76.43772024 3.41123843 -64 0 C-62.82566406 -0.33902344 -61.65132813 -0.67804688 -60.44140625 -1.02734375 C-42.0869024 -5.38980524 -18.09776235 -5.21629674 0 0 Z " fill="#8FDEA9" transform="translate(160,3)"/>
<path d="M0 0 C0.73992187 0.75796875 1.47984375 1.5159375 2.2421875 2.296875 C4.46816782 4.47871407 6.63367834 6.39372111 9.125 8.25 C9.78757812 8.75015625 10.45015625 9.2503125 11.1328125 9.765625 C16.79470877 13.50863592 25.4334919 12.66358615 32 12 C35.14703313 11.17919068 37.98352498 10.17030937 40.9609375 8.875 C43 8 43 8 45 8 C45 8.99 45 9.98 45 11 C45.99 10.96519531 46.98 10.93039063 48 10.89453125 C64.18033947 10.48469489 64.18033947 10.48469489 69.9609375 15.8046875 C74.74687646 20.98131536 77.2618442 25.34113575 77.23046875 32.52734375 C77.22853516 33.56697266 77.22660156 34.60660156 77.22460938 35.67773438 C77.21236328 36.75345703 77.20011719 37.82917969 77.1875 38.9375 C77.1865332 40.5452832 77.1865332 40.5452832 77.18554688 42.18554688 C77.1574761 47.22269096 77.07521071 52.05403071 76 57 C77.31537364 54.56401192 78.62739143 52.1263175 79.9375 49.6875 C80.31068359 48.99720703 80.68386719 48.30691406 81.06835938 47.59570312 C81.42607422 46.92861328 81.78378906 46.26152344 82.15234375 45.57421875 C82.48226318 44.96151123 82.81218262 44.34880371 83.15209961 43.7175293 C84.1323561 41.83026062 84.1323561 41.83026062 85 39 C87.86724686 39.57344937 88.8614515 39.8614515 91 42 C91.9790764 49.39999604 91.40429954 55.87103948 87 62 C84.5 64.8125 84.5 64.8125 82 67 C81.360625 67.598125 80.72125 68.19625 80.0625 68.8125 C77.29634792 70.40513301 75.13402799 70.21368373 72 70 C71.74347656 70.71929687 71.48695313 71.43859375 71.22265625 72.1796875 C69.92884605 75.16413148 68.35684394 77.50443437 66.4375 80.125 C64.45648138 82.83500053 63.06538377 84.8038487 62 88 C62.309375 88.70125 62.61875 89.4025 62.9375 90.125 C64.40836465 94.10498671 64.16460557 97.80255788 64 102 C64.61488281 102.27328125 65.22976562 102.5465625 65.86328125 102.828125 C69.04710539 104.57428084 70.25089962 106.86368208 72 110 C72.75 113.375 72.75 113.375 73 116 C73.99 116.17402344 73.99 116.17402344 75 116.3515625 C98.05453314 121.33470378 119.56187077 133.13883068 136 150 C134.46430463 155.46025021 130.79713535 158.97716081 127 163 C126.11828125 163.94617188 125.2365625 164.89234375 124.328125 165.8671875 C108.25189975 182.7631021 87.3799385 193.86195341 65 200 C63.82566406 200.33902344 62.65132812 200.67804688 61.44140625 201.02734375 C43.10931066 205.38447929 19.07206331 205.23971201 1 200 C-0.0523584 199.70198486 -0.0523584 199.70198486 -1.12597656 199.39794922 C-16.31800979 195.00994308 -30.39784722 188.63036852 -43 179 C-43.68578125 178.51660156 -44.3715625 178.03320312 -45.078125 177.53515625 C-50.42147318 173.64638619 -55.11214818 169.12637055 -59.8125 164.5 C-60.78255981 163.55640625 -60.78255981 163.55640625 -61.7722168 162.59375 C-65.6847471 158.67560778 -68.47621488 154.93314169 -71 150 C-55.27696692 135.61804916 -29.57433856 116 -7 116 C-6.95875 114.989375 -6.9175 113.97875 -6.875 112.9375 C-6.4280518 109.63139785 -5.47881673 108.19968533 -3.125 105.875 C1.26701296 101.21840795 2.29976119 95.21560288 3 89 C2.63088389 85.14983504 1.5425777 82.98288193 -0.875 80 C-2.70929325 77.70171295 -4.11407919 75.77184161 -5.4375 73.125 C-7.70971274 70.03479067 -10.36036104 69.98702073 -14 69 C-19.96861477 65.06071425 -23.92483051 59.45718996 -25.6171875 52.44140625 C-26.89673203 44.28104575 -26.89673203 44.28104575 -24.25 40.5 C-22 39 -22 39 -20.0625 39.08984375 C-17.1006334 40.39687958 -16.30622962 42.26836045 -14.75 45.0625 C-14.22921875 45.98160156 -13.7084375 46.90070313 -13.171875 47.84765625 C-12.78515625 48.55792969 -12.3984375 49.26820312 -12 50 C-12.03222656 49.13761719 -12.06445312 48.27523437 -12.09765625 47.38671875 C-12.00768303 37.91953667 -9.66970104 31.51867586 -5.31103516 23.16357422 C-1.45521369 15.51886723 -0.36456674 8.52615754 0 0 Z " fill="#FDCF5B" transform="translate(95,53)"/>
<path d="M0 0 C1.55892239 2.33838358 2.54209559 4.2198495 3.625 6.75 C8.01587064 15.53174129 16.54853684 19.75497284 25 24 C25.67160156 24.34289062 26.34320313 24.68578125 27.03515625 25.0390625 C28.35079377 25.7046569 29.67414869 26.35499125 31 27 C28.68994131 29.31005869 27.16916343 29.72174103 24.0625 30.625 C22.74958984 31.01558594 22.74958984 31.01558594 21.41015625 31.4140625 C19 32 19 32 16 32 C16.3609375 32.62003906 16.721875 33.24007812 17.09375 33.87890625 C25.01958685 49.0040449 20.02922573 66.3779793 17.54003906 82.46142578 C16.64879633 88.30124139 15.82494012 94.15047507 15 100 C-13.87272022 98.62510856 -39.83939777 82.1145932 -59.875 62.4375 C-60.51816162 61.81214355 -61.16132324 61.18678711 -61.82397461 60.54248047 C-65.71757772 56.64221812 -68.48560743 52.90875133 -71 48 C-55.27696692 33.61804916 -29.57433856 14 -7 14 C-6.95875 12.989375 -6.9175 11.97875 -6.875 10.9375 C-6.23872683 6.14097918 -3.30464254 3.32485442 0 0 Z " fill="#E5E8EC" transform="translate(95,155)"/>
<path d="M0 0 C4.23345479 1.51194814 5.85664857 4.15674915 8 8 C8.75 11.375 8.75 11.375 9 14 C9.66 14.11601562 10.32 14.23203125 11 14.3515625 C34.05453314 19.33470378 55.56187077 31.13883068 72 48 C70.46430463 53.46025021 66.79713535 56.97716081 63 61 C62.11828125 61.94617188 61.2365625 62.89234375 60.328125 63.8671875 C42.75659192 82.3346522 16.66435163 97.01097913 -9 100 C-10.32 100 -11.64 100 -13 100 C-22.00611552 45.26070215 -22.00611552 45.26070215 -15 33 C-19.29 31.68 -23.58 30.36 -28 29 C-28 28.01 -28 27.02 -28 26 C-26.37191406 25.22076172 -26.37191406 25.22076172 -24.7109375 24.42578125 C-23.26541192 23.72179152 -21.8201113 23.01733975 -20.375 22.3125 C-19.66214844 21.97283203 -18.94929687 21.63316406 -18.21484375 21.28320312 C-10.84616001 17.66646386 -4.1929529 13.18014 -1.3125 5.0625 C-0.82645278 3.38833734 -0.4068369 1.69515375 0 0 Z " fill="#E4E8EC" transform="translate(159,155)"/>
<path d="M0 0 C0.98291016 0.00322266 1.96582031 0.00644531 2.97851562 0.00976562 C4.51475586 0.02233398 4.51475586 0.02233398 6.08203125 0.03515625 C7.63567383 0.04192383 7.63567383 0.04192383 9.22070312 0.04882812 C11.77870391 0.06061615 14.33658858 0.0770711 16.89453125 0.09765625 C12.89453125 2.09765625 8.89453125 4.09765625 4.89453125 6.09765625 C5.88453125 5.76765625 6.87453125 5.43765625 7.89453125 5.09765625 C18.3552174 2.53358043 30.35050878 2.83836218 39.89453125 8.09765625 C41.90780456 9.65617704 43.28644896 11.10141617 44.89453125 13.09765625 C43.57453125 13.09765625 42.25453125 13.09765625 40.89453125 13.09765625 C41.59578125 13.51015625 42.29703125 13.92265625 43.01953125 14.34765625 C54.40396468 21.27731138 63.78471019 30.00711509 67.89453125 43.09765625 C68.03163343 45.74372834 68.08516097 48.27234638 68.01953125 50.91015625 C68.01050781 51.60302734 68.00148438 52.29589844 67.9921875 53.00976562 C67.96879282 54.7058802 67.93292766 56.40181496 67.89453125 58.09765625 C67.56453125 58.09765625 67.23453125 58.09765625 66.89453125 58.09765625 C66.65669922 59.72960937 66.65669922 59.72960937 66.4140625 61.39453125 C64.3736377 74.56481929 60.62752098 86.03654435 52.89453125 97.09765625 C52.56453125 97.09765625 52.23453125 97.09765625 51.89453125 97.09765625 C52.05308594 96.18886719 52.21164063 95.28007813 52.375 94.34375 C53.13613153 88.9671601 53.15710733 83.58189416 53.20703125 78.16015625 C53.23603516 77.11408203 53.26503906 76.06800781 53.29492188 74.99023438 C53.35387389 67.77541417 52.4886065 62.06126946 47.51733398 56.57885742 C41.77911666 51.38312845 35.86949525 50.79987229 28.51953125 50.97265625 C27.78347656 50.98167969 27.04742187 50.99070313 26.2890625 51 C24.49074245 51.02335481 22.69259214 51.05921789 20.89453125 51.09765625 C21.22453125 49.77765625 21.55453125 48.45765625 21.89453125 47.09765625 C21.14171875 47.45859375 20.38890625 47.81953125 19.61328125 48.19140625 C10.03128357 52.37771592 0.67422586 54.01871581 -9.65234375 51.46875 C-15.05281173 49.13482682 -18.56397756 44.65732615 -22.10546875 40.09765625 C-22.14542969 40.96003906 -22.18539062 41.82242188 -22.2265625 42.7109375 C-22.93428191 50.98513855 -24.8162846 57.16390742 -28.66796875 64.53515625 C-33.1846727 73.22030949 -34.44294139 80.31094957 -34.10546875 90.09765625 C-37.77721208 86.89583235 -39.42319469 83.69281017 -41.29296875 79.22265625 C-41.80214844 78.02898437 -42.31132813 76.8353125 -42.8359375 75.60546875 C-44.9460469 69.77507417 -45.24546708 64.374831 -45.16796875 58.22265625 C-45.16345703 57.53429687 -45.15894531 56.8459375 -45.15429688 56.13671875 C-45.14263211 54.4569929 -45.12470146 52.7773125 -45.10546875 51.09765625 C-46.42546875 52.08765625 -47.74546875 53.07765625 -49.10546875 54.09765625 C-49.64905219 45.67211294 -48.23779219 38.79219159 -42.66796875 32.22265625 C-41.82234375 31.52140625 -40.97671875 30.82015625 -40.10546875 30.09765625 C-38.80609375 29.01484375 -38.80609375 29.01484375 -37.48046875 27.91015625 C-35.73427247 26.57753277 -33.9331571 25.31611515 -32.10546875 24.09765625 C-34.45824144 21.37339314 -36.73043206 20.28347995 -40.10546875 19.09765625 C-40.10546875 18.76765625 -40.10546875 18.43765625 -40.10546875 18.09765625 C-33.48046875 18.84765625 -33.48046875 18.84765625 -30.10546875 21.09765625 C-30.10546875 17.79765625 -30.10546875 14.49765625 -30.10546875 11.09765625 C-29.44546875 10.76765625 -28.78546875 10.43765625 -28.10546875 10.09765625 C-27.77546875 12.40765625 -27.44546875 14.71765625 -27.10546875 17.09765625 C-26.73035156 16.5665625 -26.35523437 16.03546875 -25.96875 15.48828125 C-19.63493956 6.74538926 -11.25317154 -0.06504723 0 0 Z " fill="#334C5E" transform="translate(118.10546875,13.90234375)"/>
<path d="M0 0 C0.495 0.99 0.495 0.99 1 2 C0.0409375 3.546875 0.0409375 3.546875 -0.9375 5.125 C-6.61704308 16.32577137 -2.36008329 31.88166501 -0.51171875 43.62402344 C0.75775661 51.73992659 1.53417621 59.79870173 2 68 C-1.00604962 69.50302481 -3.77665972 69.12994577 -7.125 69.1328125 C-8.17905029 69.13424759 -8.17905029 69.13424759 -9.25439453 69.13571167 C-10.74056081 69.13639238 -12.22673006 69.1345457 -13.71289062 69.13037109 C-15.99095319 69.12502125 -18.26881859 69.13031972 -20.546875 69.13671875 C-21.98958377 69.13605795 -23.43229242 69.13477675 -24.875 69.1328125 C-26.19242187 69.13168457 -27.50984375 69.13055664 -28.8671875 69.12939453 C-32 69 -32 69 -34 68 C-33.46395261 58.57039841 -32.40120808 49.3923414 -30.9375 40.0625 C-27.47777971 20.92959762 -27.47777971 20.92959762 -33 3 C-33 2.01 -33 1.02 -33 0 C-22.33449867 -4.04470479 -10.58530918 -4.93076368 0 0 Z " fill="#FE725B" transform="translate(144,187)"/>
<path d="M0 0 C4.25292398 1.51890142 5.81167325 4.15926325 8 8 C10.69626869 21.66729303 7.67751095 34.1936108 3 47 C2.505 46.319375 2.01 45.63875 1.5 44.9375 C-3.83778925 38.66559763 -9.01397235 34.22378003 -17 32 C-17.97324219 31.72285156 -18.94648438 31.44570312 -19.94921875 31.16015625 C-22.62717846 30.41608806 -25.30955345 29.69734001 -28 29 C-28 28.01 -28 27.02 -28 26 C-26.37191406 25.22076172 -26.37191406 25.22076172 -24.7109375 24.42578125 C-23.26541192 23.72179152 -21.8201113 23.01733975 -20.375 22.3125 C-19.66214844 21.97283203 -18.94929687 21.63316406 -18.21484375 21.28320312 C-10.84616001 17.66646386 -4.1929529 13.18014 -1.3125 5.0625 C-0.82645278 3.38833734 -0.4068369 1.69515375 0 0 Z " fill="#FDFDFC" transform="translate(159,155)"/>
<path d="M0 0 C1.55892239 2.33838358 2.54209559 4.2198495 3.625 6.75 C8.01587064 15.53174129 16.54853684 19.75497284 25 24 C25.67160156 24.34289062 26.34320313 24.68578125 27.03515625 25.0390625 C28.35079377 25.7046569 29.67414869 26.35499125 31 27 C28.55448882 29.44551118 26.19063884 29.91070286 22.9296875 30.85253906 C13.5838161 33.58342673 7.59030202 36.64475221 1 44 C0.34 44.66 -0.32 45.32 -1 46 C-6.2068562 34.71118572 -9.98915704 18.51909756 -5.75 6.4375 C-4.01293011 4.0180098 -2.21663409 1.98732712 0 0 Z " fill="#FDFEFD" transform="translate(95,155)"/>
<path d="M0 0 C0.495 0.99 0.495 0.99 1 2 C-0.77386662 5.79869828 -2.92282259 9.35434168 -5 13 C-12.59 13 -20.18 13 -28 13 C-33 3 -33 3 -33 0 C-22.33449867 -4.04470479 -10.58530918 -4.93076368 0 0 Z " fill="#F05540" transform="translate(144,187)"/>
<path d="M0 0 C3.13070406 1.4179422 5.50609017 3.16197287 8.125 5.375 C15.55775555 11.18297701 22.56024653 13.75561121 32.05078125 13.37890625 C40.07288407 12.34825198 45.89926558 8.73456894 51.9921875 3.5859375 C53.92214324 2.06149775 55.76649277 1.01158848 58 0 C57.92320707 2.61095954 57.47714728 4.42215606 55.796875 6.45703125 C47.65323716 13.94838742 37.3367665 18.45020451 26.33203125 18.34375 C15.55470484 17.2319039 6.20455254 10.80493192 -1 3 C-0.67 2.01 -0.34 1.02 0 0 Z " fill="#F8B64D" transform="translate(99,141)"/>
</svg>
