<?xml version="1.0" encoding="UTF-8"?>
<svg version="1.1" xmlns="http://www.w3.org/2000/svg" width="400" height="98">
<path d="M0 0 C2.30438237 0.00849251 4.60626249 -0.02030378 6.91040039 -0.05200195 C19.46176327 -0.1119144 31.54552123 1.39491836 41.00610352 10.44604492 C46.92578129 16.43193833 49.29251957 21.08568503 49.38110352 29.69604492 C49.32111309 38.53284836 47.35109874 44.18222422 41.38110352 50.69604492 C30.34700282 60.97270271 17.60955947 61.79424565 3.19360352 61.75854492 C1.90389648 61.7746582 0.61418945 61.79077148 -0.71459961 61.80737305 C-13.70803495 61.81394535 -26.03254784 59.91927706 -35.84155273 50.71166992 C-41.72704599 44.17544646 -44.37065007 37.43933579 -44.20483398 28.61791992 C-43.48277512 21.18338795 -40.26181144 14.70286953 -34.99389648 9.44604492 C-24.25810034 1.2504976 -13.11255858 -0.07350244 0 0 Z M-21.86889648 23.25854492 C-24.18749098 27.7669231 -24.32493555 31.29714463 -22.93139648 36.13354492 C-20.21122515 40.78416042 -17.04389091 42.76271345 -11.99389648 44.44604492 C-7.79486633 44.69650127 -3.59559354 44.7168704 0.61035156 44.74121094 C1.99033899 44.75269331 3.37028332 44.77308595 4.75 44.80273438 C12.88537596 44.9774054 19.12425899 45.04525545 26.00610352 40.44604492 C29.26814775 36.87818404 29.53247159 33.33070632 29.35375977 28.66088867 C28.79585755 25.10661278 27.39505241 23.08646212 25.00610352 20.44604492 C18.65802437 16.58257296 12.44169008 16.95739828 5.26611328 17 C3.07757449 17.00851004 0.89165073 16.97971227 -1.29663086 16.94799805 C-9.64226767 16.90654779 -15.57884169 17.17815862 -21.86889648 23.25854492 Z " fill="#373435" transform="translate(350.993896484375,0.553955078125)"/>
<path d="M0 0 C1.64377813 0.03455292 3.28767463 0.06388516 4.93164062 0.08789062 C18.39818747 0.39406397 29.94423195 2.18494423 40.3125 11.375 C46.44757322 18.36216673 49.02296704 24.70392577 48.4375 34 C47.38896979 41.9441583 43.44536158 48.80822011 37.1875 53.8515625 C36.32125 54.41617188 35.455 54.98078125 34.5625 55.5625 C33.716875 56.13226563 32.87125 56.70203125 32 57.2890625 C19.33648722 63.36179249 6.03266766 62.2881643 -7.6875 62.125 C-9.89712631 62.10992774 -12.10676255 62.09624383 -14.31640625 62.08398438 C-19.69055325 62.05374724 -25.06330181 61.99498944 -30.4375 61.9375 C-30.4375 49.0675 -30.4375 36.1975 -30.4375 22.9375 C-23.8375 22.9375 -17.2375 22.9375 -10.4375 22.9375 C-10.4375 30.1975 -10.4375 37.4575 -10.4375 44.9375 C-6.10272963 44.87729486 -1.77130114 44.7901544 2.5625 44.6875 C3.78324219 44.67332031 5.00398438 44.65914062 6.26171875 44.64453125 C13.43121023 44.45076121 18.51724906 43.91922778 24.5625 39.9375 C27.52978856 35.48656717 27.31886001 31.15562008 26.5625 25.9375 C24.01648109 22.47208537 21.48010438 20.58921064 17.5625 18.9375 C15.22269459 18.61397188 15.22269459 18.61397188 12.70214844 18.61865234 C11.74145447 18.59878265 10.7807605 18.57891296 9.79095459 18.55844116 C8.76165833 18.54688995 7.73236206 18.53533875 6.671875 18.5234375 C5.61212463 18.50407135 4.55237427 18.4847052 3.46051025 18.4647522 C0.07792187 18.40500446 -3.30470063 18.3585898 -6.6875 18.3125 C-8.98178562 18.27431584 -11.27605697 18.23526385 -13.5703125 18.1953125 C-19.19258162 18.09930685 -24.81493677 18.01424517 -30.4375 17.9375 C-24.60635402 1.57658084 -15.89058785 -0.84968874 0 0 Z " fill="#373434" transform="translate(226.4375,0.0625)"/>
<path d="M0 0 C2.64966109 0.039523 5.29941222 0.07343222 7.94921875 0.1015625 C10.48186294 0.14607843 13.01442832 0.19539199 15.546875 0.25 C16.73134216 0.27529785 17.91580933 0.3005957 19.13616943 0.32666016 C29.53223033 0.71807328 29.53223033 0.71807328 34.25 4 C35.82311884 7.14623767 35.60884339 9.52873945 35.25 13 C33.1171875 15.703125 33.1171875 15.703125 30.125 18.25 C29.32171265 18.94488525 29.32171265 18.94488525 28.50219727 19.65380859 C23.45856026 23.96529302 18.22806051 28.06268115 12.96484375 32.1015625 C7.96913648 35.95419645 3.12047082 39.99122363 -1.75 44 C-0.88310547 43.9779248 -0.01621094 43.95584961 0.87695312 43.93310547 C4.12837785 43.8744547 7.37608455 43.86133094 10.62792969 43.87792969 C12.02845975 43.87599614 13.42908959 43.85649967 14.82910156 43.81835938 C26.43130652 43.52044256 26.43130652 43.52044256 30.86328125 47.12597656 C32.89168241 49.66147801 34.57025232 52.22492114 36.25 55 C37.34151367 56.33780518 37.34151367 56.33780518 38.45507812 57.70263672 C40.25 60 40.25 60 40.25 62 C30.96602807 62.06959428 21.68214633 62.12285903 12.3979702 62.15543652 C8.08667137 62.17107424 3.77555138 62.19227776 -0.53564453 62.22631836 C-4.69832485 62.25897959 -8.86083345 62.27686726 -13.02363205 62.28463173 C-14.60961992 62.29016312 -16.19559869 62.30096466 -17.78151321 62.31719017 C-20.00770427 62.33905491 -22.23319103 62.34196323 -24.45947266 62.34057617 C-25.72522125 62.34723801 -26.99096985 62.35389984 -28.29507446 62.36076355 C-32.11915354 61.96145296 -34.50008682 61.02860882 -37.75 59 C-39.75 56 -39.75 56 -39.68359375 53.1171875 C-38.50941929 49.19672216 -36.90663493 47.77215611 -33.8125 45.125 C-32.81347656 44.26261719 -31.81445312 43.40023437 -30.78515625 42.51171875 C-27.31755966 39.64213753 -23.83905641 36.79380751 -20.30078125 34.01171875 C-16.58961594 31.08484258 -12.94538917 28.07774945 -9.29296875 25.078125 C-6.79263641 23.03484266 -4.27145242 21.01716193 -1.75 19 C-21.055 18.505 -21.055 18.505 -40.75 18 C-40.09 16.68 -39.43 15.36 -38.75 14 C-38.2972168 12.94425781 -37.84443359 11.88851563 -37.37792969 10.80078125 C-29.29459608 -3.61442975 -14.70474466 -0.53866182 0 0 Z " fill="#373334" transform="translate(123.75,0)"/>
<path d="M0 0 C1.05960938 0.00386719 2.11921875 0.00773438 3.2109375 0.01171875 C4.31695312 0.03621094 5.42296875 0.06070313 6.5625 0.0859375 C7.66851562 0.08722656 8.77453125 0.08851562 9.9140625 0.08984375 C18.14097287 0.17991941 18.14097287 0.17991941 21.5625 2.4609375 C23.04219145 6.90001184 22.82808625 11.2477211 22.875 15.8984375 C22.91850586 17.33026367 22.91850586 17.33026367 22.96289062 18.79101562 C23.02494173 25.61186416 23.02494173 25.61186416 21.1328125 29.0859375 C17.21957204 31.17934273 13.49905928 31.02012131 9.125 31.0234375 C1.30341732 30.88035968 1.30341732 30.88035968 -5.4375 34.4609375 C-6.49609353 37.63671808 -6.56264862 39.93046449 -6.578125 43.265625 C-6.59746094 44.40644531 -6.61679687 45.54726563 -6.63671875 46.72265625 C-6.67046076 49.12353002 -6.68879351 51.52467181 -6.69140625 53.92578125 C-6.79453602 58.74031307 -6.9054997 62.41682477 -9.109375 66.7421875 C-14.6622779 69.60988383 -20.29026138 69.17945533 -26.4375 69.0859375 C-28.34402344 69.11494141 -28.34402344 69.11494141 -30.2890625 69.14453125 C-35.31324027 69.11808821 -39.24417261 69.05411193 -43.77734375 66.80078125 C-46.55721021 61.20834401 -46.11492271 55.54524936 -46 49.3984375 C-46.01095703 48.11904297 -46.02191406 46.83964844 -46.03320312 45.52148438 C-45.95935734 36.14306991 -45.95935734 36.14306991 -43.65209961 33.12719727 C-39.79704786 30.226665 -36.41100279 30.33771243 -31.68359375 30.28515625 C-30.03133789 30.24938477 -30.03133789 30.24938477 -28.34570312 30.21289062 C-26.02818371 30.16985284 -23.7104151 30.13864009 -21.39257812 30.11914062 C-20.29236328 30.09142578 -19.19214844 30.06371094 -18.05859375 30.03515625 C-17.0523999 30.02057373 -16.04620605 30.00599121 -15.00952148 29.9909668 C-12.34399516 29.67756647 -12.34399516 29.67756647 -10.61157227 27.7277832 C-9.27606475 25.14924561 -9.05584775 23.50854085 -9.03125 20.6171875 C-9.00933594 19.70066406 -8.98742188 18.78414062 -8.96484375 17.83984375 C-8.95582031 16.88980469 -8.94679687 15.93976562 -8.9375 14.9609375 C-8.91959073 13.07534692 -8.8888236 11.18982435 -8.84375 9.3046875 C-8.83666016 8.47130859 -8.82957031 7.63792969 -8.82226562 6.77929688 C-7.90410244 1.24701415 -5.32941461 -0.04511955 0 0 Z " fill="#3E4095" transform="translate(45.4375,-0.4609375)"/>
<path d="M0 0 C6.6 0 13.2 0 20 0 C20 20.13 20 40.26 20 61 C13.4 61 6.8 61 0 61 C0 40.87 0 20.74 0 0 Z " fill="#373435" transform="translate(281,1)"/>
<path d="M0 0 C6.6 0 13.2 0 20 0 C20 20.13 20 40.26 20 61 C13.4 61 6.8 61 0 61 C0 40.87 0 20.74 0 0 Z " fill="#373435" transform="translate(169,1)"/>
<path d="M0 0 C0.85851562 0.02707031 1.71703125 0.05414063 2.6015625 0.08203125 C3.4265625 0.12199219 4.2515625 0.16195312 5.1015625 0.203125 C5.85002441 0.23567383 6.59848633 0.26822266 7.36962891 0.30175781 C9.952932 0.87917983 10.8490914 1.5926401 12.375 3.75 C12.76318359 6.0625 12.76318359 6.0625 12.7734375 8.75 C12.77923828 10.2040625 12.77923828 10.2040625 12.78515625 11.6875 C12.77355469 12.698125 12.76195313 13.70875 12.75 14.75 C12.76160156 15.760625 12.77320312 16.77125 12.78515625 17.8125 C12.78128906 18.781875 12.77742188 19.75125 12.7734375 20.75 C12.76836182 22.0803125 12.76836182 22.0803125 12.76318359 23.4375 C12.375 25.75 12.375 25.75 11.17626953 27.53979492 C8.74049513 29.1762999 7.07836502 29.12266 4.15625 29.11328125 C2.63451172 29.11231445 2.63451172 29.11231445 1.08203125 29.11132812 C0.02371094 29.09521484 -1.03460938 29.07910156 -2.125 29.0625 C-3.18332031 29.06572266 -4.24164063 29.06894531 -5.33203125 29.07226562 C-13.22433537 29.01710975 -13.22433537 29.01710975 -16.625 26.75 C-16.99731445 24.45922852 -16.99731445 24.45922852 -16.98828125 21.62890625 C-16.98763672 20.61119141 -16.98699219 19.59347656 -16.98632812 18.54492188 C-16.97021484 17.47822266 -16.95410156 16.41152344 -16.9375 15.3125 C-16.94072266 14.24966797 -16.94394531 13.18683594 -16.94726562 12.09179688 C-16.89201322 4.15051983 -16.89201322 4.15051983 -14.625 0.75 C-9.95972817 -0.87113693 -4.85887774 -0.24294389 0 0 Z M-10.625 6.75 C-10.625 12.03 -10.625 17.31 -10.625 22.75 C-7.28375 22.87375 -7.28375 22.87375 -3.875 23 C-1.99554688 23.06960937 -1.99554688 23.06960937 -0.078125 23.140625 C3.40286037 23.03418451 3.40286037 23.03418451 5.80078125 20.98828125 C8.36632869 17.34049296 7.86260928 15.13848352 7.375 10.75 C5.96047117 8.55748031 5.0773427 7.97575301 2.625 7.1875 C-0.08500819 6.66055396 -2.61584421 6.65465291 -5.375 6.6875 C-7.97375 6.7184375 -7.97375 6.7184375 -10.625 6.75 Z " fill="#3F4198" transform="translate(56.625,69.25)"/>
<path d="M0 0 C1.32 0 2.64 0 4 0 C5.921875 1.96875 5.921875 1.96875 7.75 4.5 C8.67039062 5.75296875 8.67039062 5.75296875 9.609375 7.03125 C10.06828125 7.6809375 10.5271875 8.330625 11 9 C14.54250765 5.56736221 14.54250765 5.56736221 17.5625 1.6875 C18.036875 1.130625 18.51125 0.57375 19 0 C20.32 0 21.64 0 23 0 C23 5.94 23 11.88 23 18 C21.68 18 20.36 18 19 18 C18.505 13.05 18.505 13.05 18 8 C16.02 10.64 14.04 13.28 12 16 C9.35247996 13.42215154 7.05567935 11.08351902 5 8 C4.67 11.3 4.34 14.6 4 18 C2.68 18 1.36 18 0 18 C0 12.06 0 6.12 0 0 Z " fill="#363334" transform="translate(275,75)"/>
<path d="M0 0 C1.55214428 0.00399351 3.1042894 0.01875918 4.65625 0.04296875 C5.83380859 0.04393555 5.83380859 0.04393555 7.03515625 0.04492188 C12.87531304 0.09000027 12.87531304 0.09000027 15.15625 1.23046875 C15.18309679 3.87636889 15.20301357 6.52199971 15.21875 9.16796875 C15.22712891 9.92271484 15.23550781 10.67746094 15.24414062 11.45507812 C15.25277441 13.38041188 15.20849333 15.30582456 15.15625 17.23046875 C12.99892167 19.38779708 8.20826247 18.41567794 5.21875 18.41796875 C4.38150391 18.43021484 3.54425781 18.44246094 2.68164062 18.45507812 C1.47991211 18.45797852 1.47991211 18.45797852 0.25390625 18.4609375 C-0.48335693 18.46504639 -1.22062012 18.46915527 -1.98022461 18.47338867 C-3.84375 18.23046875 -3.84375 18.23046875 -5.84375 16.23046875 C-6.109375 13.04296875 -6.109375 13.04296875 -6.09375 9.23046875 C-6.09890625 7.97234375 -6.1040625 6.71421875 -6.109375 5.41796875 C-5.70967462 0.62156419 -4.76482309 0.28569569 0 0 Z M-1.84375 4.23046875 C-1.84375 7.86046875 -1.84375 11.49046875 -1.84375 15.23046875 C2.44625 15.23046875 6.73625 15.23046875 11.15625 15.23046875 C11.15625 11.60046875 11.15625 7.97046875 11.15625 4.23046875 C6.86625 4.23046875 2.57625 4.23046875 -1.84375 4.23046875 Z " fill="#383436" transform="translate(210.84375,74.76953125)"/>
<path d="M0 0 C5.94 0 11.88 0 18 0 C18 1.32 18 2.64 18 4 C13.38 4 8.76 4 4 4 C4 4.99 4 5.98 4 7 C6.97 7 9.94 7 13 7 C13 8.32 13 9.64 13 11 C10.03 11 7.06 11 4 11 C4 12.32 4 13.64 4 15 C8.62 15 13.24 15 18 15 C18 15.99 18 16.98 18 18 C12.06 18 6.12 18 0 18 C0 12.06 0 6.12 0 0 Z " fill="#373435" transform="translate(80,75)"/>
<path d="M0 0 C5.94 0 11.88 0 18 0 C18 1.32 18 2.64 18 4 C13.38 4 8.76 4 4 4 C4 4.99 4 5.98 4 7 C6.64 7 9.28 7 12 7 C12 8.32 12 9.64 12 11 C9.36 11 6.72 11 4 11 C4 12.32 4 13.64 4 15 C8.62 15 13.24 15 18 15 C18 15.99 18 16.98 18 18 C12.06 18 6.12 18 0 18 C0 12.06 0 6.12 0 0 Z " fill="#373435" transform="translate(144,75)"/>
<path d="M0 0 C2.76375 -0.04125 5.5275 -0.0825 8.375 -0.125 C9.67896729 -0.15231201 9.67896729 -0.15231201 11.00927734 -0.18017578 C13.00703478 -0.19473738 15.00467217 -0.09956726 17 0 C19.32528287 2.32528287 19.29511025 2.84665898 19.3125 6 C19.32925781 6.70125 19.34601563 7.4025 19.36328125 8.125 C19.24339844 8.74375 19.12351562 9.3625 19 10 C15.47320901 12.35119399 13.97120515 12.21443452 9.8125 12.125 C8.72582031 12.10695313 7.63914063 12.08890625 6.51953125 12.0703125 C5.27236328 12.03550781 5.27236328 12.03550781 4 12 C4 13.98 4 15.96 4 18 C2.68 18 1.36 18 0 18 C0 12.06 0 6.12 0 0 Z M4 4 C4 5.32 4 6.64 4 8 C7.63 8 11.26 8 15 8 C15 6.68 15 5.36 15 4 C11.37 4 7.74 4 4 4 Z " fill="#373435" transform="translate(242,75)"/>
<path d="M0 0 C5.61 0 11.22 0 17 0 C17 1.32 17 2.64 17 4 C12.71 4 8.42 4 4 4 C4 4.99 4 5.98 4 7 C6.64 7 9.28 7 12 7 C12 8.32 12 9.64 12 11 C9.36 11 6.72 11 4 11 C4 12.32 4 13.64 4 15 C8.62 15 13.24 15 18 15 C18 15.99 18 16.98 18 18 C12.06 18 6.12 18 0 18 C0 12.06 0 6.12 0 0 Z " fill="#373435" transform="translate(314,75)"/>
<path d="M0 0 C4.44166969 1.11041742 6.55388716 3.01319024 9.75 6.0625 C10.25660156 6.53494141 10.76320313 7.00738281 11.28515625 7.49414062 C12.52949613 8.65630711 13.76558064 9.82730161 15 11 C15.33 7.37 15.66 3.74 16 0 C17.32 0 18.64 0 20 0 C20 5.94 20 11.88 20 18 C15.95736824 16.98934206 14.86786189 16.27830745 11.9375 13.5625 C9.66243606 11.47083853 7.58492291 9.72328194 5 8 C4.67 11.3 4.34 14.6 4 18 C2.68 18 1.36 18 0 18 C0 12.06 0 6.12 0 0 Z " fill="#383436" transform="translate(346,75)"/>
<path d="M0 0 C8.66725664 -0.29380531 8.66725664 -0.29380531 13 2 C15 4 15 4 15.25 6.9375 C15 10 15 10 13 13 C9.98509443 14.00496852 7.95818308 14.10335303 4.8125 14.0625 C3.224375 14.041875 1.63625 14.02125 0 14 C0 9.38 0 4.76 0 0 Z " fill="#3D4096" transform="translate(48,77)"/>
<path d="M0 0 C2.29296875 0.15234375 2.29296875 0.15234375 5 1 C6.80078125 3.50390625 6.80078125 3.50390625 8.3125 6.5625 C8.82425781 7.57441406 9.33601563 8.58632812 9.86328125 9.62890625 C10.23839844 10.41136719 10.61351563 11.19382812 11 12 C11.45890625 11.13375 11.9178125 10.2675 12.390625 9.375 C13.00421875 8.26125 13.6178125 7.1475 14.25 6 C14.85328125 4.88625 15.4565625 3.7725 16.078125 2.625 C16.71234375 1.75875 17.3465625 0.8925 18 0 C19.32 0 20.64 0 22 0 C20.45614871 4.14032846 18.48971062 7.93553053 16.375 11.8125 C16.05015625 12.40998047 15.7253125 13.00746094 15.390625 13.62304688 C14.59620849 15.08337135 13.79844624 16.54187491 13 18 C11.68 18 10.36 18 9 18 C7.49480613 15.37785672 5.99568681 12.75255792 4.5 10.125 C3.85611328 9.00544922 3.85611328 9.00544922 3.19921875 7.86328125 C2.79316406 7.14785156 2.38710937 6.43242188 1.96875 5.6953125 C1.59169922 5.03547363 1.21464844 4.37563477 0.82617188 3.69580078 C0 2 0 2 0 0 Z " fill="#373536" transform="translate(109,75)"/>
<path d="M0 0 C6.6 0 13.2 0 20 0 C20 1.32 20 2.64 20 4 C17.36 4 14.72 4 12 4 C12 8.62 12 13.24 12 18 C10.68 18 9.36 18 8 18 C8 13.38 8 8.76 8 4 C5.36 4 2.72 4 0 4 C0 2.68 0 1.36 0 0 Z " fill="#373436" transform="translate(378,75)"/>
<path d="M0 0 C1.32 0 2.64 0 4 0 C4 4.95 4 9.9 4 15 C8.29 15 12.58 15 17 15 C17 15.99 17 16.98 17 18 C11.39 18 5.78 18 0 18 C0 12.06 0 6.12 0 0 Z " fill="#383536" transform="translate(176,75)"/>
</svg>
